<?xml version="1.0" encoding="UTF-8"?>
<svg id="Layer_2" data-name="Layer 2" xmlns="http://www.w3.org/2000/svg" viewBox="0 0 314.97 363.69">
  <defs>
    <style>
      .cls-1 {
        fill: #00a99d;
      }

      .cls-1, .cls-2 {
        stroke-width: 0px;
      }

      .cls-2 {
        fill: #fff;
      }
    </style>
  </defs>
  <g id="Livello_3" data-name="Livello 3">
    <g>
      <polygon class="cls-1" points="314.97 272.77 314.97 90.92 157.48 0 0 90.92 0 272.77 157.48 363.69 314.97 272.77"/>
      <path class="cls-2" d="m126.91,333.5c-1.37,0-2.76-.38-4.01-1.17l-30-19c-2.14-1.35-3.45-3.69-3.49-6.22l-1.36-87.43-33.09-29.05c-1.57-1.38-2.5-3.35-2.55-5.45-.05-2.09.77-4.11,2.27-5.57l34.73-33.75v-80.87c0-2.51,1.25-4.85,3.34-6.24l30-20c3.45-2.3,8.1-1.37,10.4,2.08,2.3,3.45,1.37,8.1-2.08,10.4l-26.66,17.77v80.03c0,2.03-.82,3.97-2.27,5.38l-31.18,30.3,29.49,25.89c1.59,1.4,2.52,3.4,2.55,5.52l1.35,86.7,26.58,16.83c3.5,2.22,4.54,6.85,2.32,10.35-1.43,2.25-3.86,3.49-6.34,3.49Z"/>
      <path class="cls-2" d="m189.4,333.5c-2.42,0-4.8-1.17-6.25-3.34-2.3-3.45-1.37-8.1,2.08-10.4l26.66-17.77v-80.03c0-1.99.79-3.9,2.2-5.31l31.24-31.21-29.39-24.98c-1.65-1.4-2.61-3.44-2.64-5.6l-1.35-86.7-26.58-16.83c-3.5-2.22-4.54-6.85-2.32-10.35,2.22-3.5,6.85-4.54,10.35-2.32l30,19c2.14,1.35,3.45,3.69,3.49,6.22l1.36,87.36,33,28.05c1.6,1.36,2.55,3.32,2.64,5.41.08,2.09-.71,4.13-2.19,5.61l-34.8,34.76v80.93c0,2.51-1.25,4.85-3.34,6.24l-30,20c-1.28.85-2.72,1.26-4.15,1.26Z"/>
      <g>
        <circle class="cls-1" cx="127.42" cy="44.5" r="4.5"/>
        <circle class="cls-1" cx="97.42" cy="66.5" r="4.5"/>
        <circle class="cls-1" cx="96.42" cy="149.5" r="4.5"/>
        <circle class="cls-1" cx="60.42" cy="184.5" r="4.5"/>
        <circle class="cls-1" cx="95.42" cy="216.5" r="4.5"/>
        <circle class="cls-1" cx="97.42" cy="307.5" r="4.5"/>
        <circle class="cls-1" cx="127.42" cy="326.5" r="4.5"/>
      </g>
      <g>
        <circle class="cls-1" cx="189.42" cy="326.5" r="4.5"/>
        <circle class="cls-1" cx="219.42" cy="304.5" r="4.5"/>
        <circle class="cls-1" cx="220.42" cy="221.5" r="4.5"/>
        <circle class="cls-1" cx="256.42" cy="185.5" r="4.5"/>
        <circle class="cls-1" cx="221.42" cy="154.5" r="4.5"/>
        <circle class="cls-1" cx="219.42" cy="63.5" r="4.5"/>
        <circle class="cls-1" cx="189.42" cy="44.5" r="4.5"/>
      </g>
    </g>
  </g>
</svg>