<?xml version="1.0" encoding="UTF-8"?>
<svg id="Layer_2" data-name="Layer 2" xmlns="http://www.w3.org/2000/svg" viewBox="0 0 314.97 363.69">
  <defs>
    <style>
      .cls-1 {
        fill: #fff;
      }

      .cls-1, .cls-2 {
        stroke-width: 0px;
      }

      .cls-2 {
        fill: #93278f;
      }
    </style>
  </defs>
  <g id="Livello_3" data-name="Livello 3">
    <g>
      <polygon class="cls-2" points="314.97 272.77 314.97 90.92 157.48 0 0 90.92 0 272.77 157.48 363.69 314.97 272.77"/>
      <g>
        <g>
          <circle class="cls-2" cx="157.48" cy="181.85" r="7"/>
          <path class="cls-1" d="m157.48,177.35c2.49,0,4.5,2.01,4.5,4.5s-2.01,4.5-4.5,4.5-4.5-2.01-4.5-4.5,2.01-4.5,4.5-4.5m0-5c-5.24,0-9.5,4.26-9.5,9.5s4.26,9.5,9.5,9.5,9.5-4.26,9.5-9.5-4.26-9.5-9.5-9.5h0Z"/>
        </g>
        <g>
          <circle class="cls-2" cx="218.48" cy="181.85" r="7"/>
          <path class="cls-1" d="m218.48,177.35c2.49,0,4.5,2.01,4.5,4.5s-2.01,4.5-4.5,4.5-4.5-2.01-4.5-4.5,2.01-4.5,4.5-4.5m0-5c-5.24,0-9.5,4.26-9.5,9.5s4.26,9.5,9.5,9.5,9.5-4.26,9.5-9.5-4.26-9.5-9.5-9.5h0Z"/>
        </g>
        <g>
          <circle class="cls-2" cx="96.48" cy="181.85" r="7"/>
          <path class="cls-1" d="m96.48,177.35c2.49,0,4.5,2.01,4.5,4.5s-2.01,4.5-4.5,4.5-4.5-2.01-4.5-4.5,2.01-4.5,4.5-4.5m0-5c-5.24,0-9.5,4.26-9.5,9.5s4.26,9.5,9.5,9.5,9.5-4.26,9.5-9.5-4.26-9.5-9.5-9.5h0Z"/>
        </g>
      </g>
    </g>
  </g>
</svg>