<?xml version="1.0" encoding="UTF-8"?>
<svg id="Layer_2" data-name="Layer 2" xmlns="http://www.w3.org/2000/svg" viewBox="0 0 210.35 168">
  <defs>
    <style>
      .cls-1 {
        fill: none;
        opacity: .7;
        stroke: #93278f;
        stroke-linecap: round;
        stroke-linejoin: round;
        stroke-width: 15px;
      }

      .cls-2 {
        fill: #fff;
        stroke-width: 0px;
      }
    </style>
  </defs>
  <g id="Livello_3" data-name="Livello 3">
    <g>
      <polyline class="cls-1" points="146.35 12 147.35 84 199.43 65.56 146.16 84.68 69.66 84.68 8.87 64.88 64.88 86.73 145.47 8.87 201.28 63.34 202.85 64.88 105.49 160.5 147.35 84 105.86 48.48 65.24 7.5 64.88 86.73 105.86 160.5 9.55 66.87 7.5 64.88 64.51 7.5"/>
      <circle class="cls-2" cx="65.35" cy="83" r="4.5"/>
      <circle class="cls-2" cx="147.35" cy="83" r="4.5"/>
      <circle class="cls-2" cx="65.35" cy="11" r="4.5"/>
      <circle class="cls-2" cx="147.35" cy="11" r="4.5"/>
      <circle class="cls-2" cx="202.35" cy="65" r="4.5"/>
      <circle class="cls-2" cx="105.35" cy="159" r="4.5"/>
      <circle class="cls-2" cx="8.35" cy="65" r="4.5"/>
      <circle class="cls-2" cx="104.35" cy="47" r="4.5"/>
    </g>
  </g>
</svg>