<?xml version="1.0" encoding="UTF-8"?>
<svg id="Layer_2" data-name="Layer 2" xmlns="http://www.w3.org/2000/svg" viewBox="0 0 137 244">
  <defs>
    <style>
      .cls-1 {
        stroke: #00a99d;
      }

      .cls-1, .cls-2 {
        fill: none;
        opacity: .7;
        stroke-linecap: round;
        stroke-linejoin: round;
        stroke-width: 15px;
      }

      .cls-2 {
        stroke: #93278f;
      }

      .cls-3 {
        fill: #fff;
        stroke-width: 0px;
      }
    </style>
  </defs>
  <g id="Livello_3" data-name="Livello 3">
    <g>
      <polygon class="cls-2" points="129.5 42.5 68.5 7.5 7.5 42.5 7.5 113.5 68.5 236.5 129.5 113.5 129.5 42.5"/>
      <polygon class="cls-1" points="41.5 62.7 41.5 93.3 68 108.6 94.5 93.3 94.5 62.7 68 47.4 41.5 62.7"/>
      <line class="cls-2" x1="7.5" y1="113.5" x2="41.5" y2="95.5"/>
      <line class="cls-2" x1="129.5" y1="113.5" x2="94.5" y2="93.5"/>
      <line class="cls-2" x1="129.5" y1="44.5" x2="94.5" y2="63.5"/>
      <line class="cls-2" x1="68.5" y1="8.5" x2="68.5" y2="47.5"/>
      <line class="cls-2" x1="7.5" y1="44.5" x2="40.5" y2="63.5"/>
      <line class="cls-2" x1="68.5" y1="107.5" x2="68.5" y2="232.5"/>
      <circle class="cls-3" cx="68.5" cy="232.5" r="4.5"/>
      <circle class="cls-3" cx="68.5" cy="8.5" r="4.5"/>
      <circle class="cls-3" cx="7.5" cy="44.5" r="4.5"/>
      <circle class="cls-3" cx="68.5" cy="47.5" r="4.5"/>
      <circle class="cls-3" cx="68.5" cy="107.5" r="4.5"/>
      <circle class="cls-3" cx="94.5" cy="93.5" r="4.5"/>
      <circle class="cls-3" cx="94.5" cy="63.5" r="4.5"/>
      <circle class="cls-3" cx="41.5" cy="93.5" r="4.5"/>
      <circle class="cls-3" cx="41.5" cy="63.5" r="4.5"/>
      <circle class="cls-3" cx="7.5" cy="113.5" r="4.5"/>
      <circle class="cls-3" cx="129.5" cy="44.5" r="4.5"/>
      <circle class="cls-3" cx="129.5" cy="113.5" r="4.5"/>
    </g>
  </g>
</svg>