<?xml version="1.0" encoding="UTF-8"?>
<svg xmlns="http://www.w3.org/2000/svg" version="1.1" viewBox="0 0 280.6 322.9">
  <defs>
    <style>
      .cls-1, .cls-2 {
        fill: none;
      }

      .cls-2 {
        isolation: isolate;
        opacity: .7;
        stroke: #fff;
        stroke-linecap: round;
        stroke-linejoin: round;
        stroke-width: 15px;
      }
    </style>
  </defs>
  <!-- Generator: Adobe Illustrator 28.6.0, SVG Export Plug-In . SVG Version: 1.2.0 Build 709)  -->
  <g>
    <g id="Layer_1">
      <g>
        <polygon class="cls-2" points="70.6 117.9 105.6 65.9 171.6 62.9 210.6 123.9 170.6 147.9 106.1 146.4 70.6 117.9"/>
        <polyline class="cls-2" points="167.1 101.4 108.1 146.4 142.1 212.4"/>
        <polyline class="cls-2" points="171.1 62.4 167.1 100.4 171.1 149.4 142.1 212.4"/>
        <polyline class="cls-2" points="117.1 212.4 117.1 248.4 140.1 260.4 165.1 248.4 165.1 212.4"/>
        <polyline class="cls-2" points="107.1 65.4 167.1 101.4 211.1 124.4 165.6 211.9 116.6 211.9 69.6 119.9"/>
        <circle class="cls-1" cx="140.1" cy="260.4" r="4.5"/>
        <circle class="cls-1" cx="165.1" cy="247.4" r="4.5"/>
        <circle class="cls-1" cx="117.1" cy="247.4" r="4.5"/>
        <circle class="cls-1" cx="117.1" cy="212.4" r="4.5"/>
        <circle class="cls-1" cx="142.1" cy="212.4" r="4.5"/>
        <circle class="cls-1" cx="165.1" cy="212.4" r="4.5"/>
        <circle class="cls-1" cx="210.1" cy="124.4" r="4.5"/>
        <circle class="cls-1" cx="167.1" cy="101.4" r="4.5"/>
        <circle class="cls-1" cx="171.1" cy="64.4" r="4.5"/>
        <circle class="cls-1" cx="106.1" cy="65.4" r="4.5"/>
        <circle class="cls-1" cx="171.1" cy="147.4" r="4.5"/>
        <circle class="cls-1" cx="109.1" cy="146.4" r="4.5"/>
        <circle class="cls-1" cx="71.1" cy="119.4" r="4.5"/>
      </g>
    </g>
  </g>
</svg>