<?xml version="1.0" encoding="utf-8"?>
<!-- Generator: Adobe Illustrator 28.0.0, SVG Export Plug-In . SVG Version: 6.00 Build 0)  -->
<svg version="1.1" id="Layer_1" xmlns="http://www.w3.org/2000/svg" xmlns:xlink="http://www.w3.org/1999/xlink" x="0px" y="0px"
	 viewBox="0 0 156.5 213" style="enable-background:new 0 0 156.5 213;" xml:space="preserve">
<style type="text/css">
	
		.st0{opacity:0.7;fill:none;stroke:#FFFFFF;stroke-width:15;stroke-linecap:round;stroke-linejoin:round;enable-background:new    ;}
	.st1{fill:none;}
</style>
<g>
	<polygon class="st0" points="8.5,63 43.5,11 109.5,8 148.5,69 108.5,93 44,91.5 	"/>
	<polyline class="st0" points="105,46.5 46,91.5 80,157.5 	"/>
	<polyline class="st0" points="109,7.5 105,45.5 109,94.5 80,157.5 	"/>
	<polyline class="st0" points="55,157.5 55,193.5 78,205.5 103,193.5 103,157.5 	"/>
	<polyline class="st0" points="45,10.5 105,46.5 149,69.5 103.5,157 54.5,157 7.5,65 	"/>
	<circle class="st1" cx="78" cy="205.5" r="4.5"/>
	<circle class="st1" cx="103" cy="192.5" r="4.5"/>
	<circle class="st1" cx="55" cy="192.5" r="4.5"/>
	<circle class="st1" cx="55" cy="157.5" r="4.5"/>
	<circle class="st1" cx="80" cy="157.5" r="4.5"/>
	<circle class="st1" cx="103" cy="157.5" r="4.5"/>
	<circle class="st1" cx="148" cy="69.5" r="4.5"/>
	<circle class="st1" cx="105" cy="46.5" r="4.5"/>
	<circle class="st1" cx="109" cy="9.5" r="4.5"/>
	<circle class="st1" cx="44" cy="10.5" r="4.5"/>
	<circle class="st1" cx="109" cy="92.5" r="4.5"/>
	<circle class="st1" cx="47" cy="91.5" r="4.5"/>
	<circle class="st1" cx="9" cy="64.5" r="4.5"/>
</g>
</svg>
