<?xml version="1.0" encoding="utf-8"?>
<!-- Generator: Adobe Illustrator 28.0.0, SVG Export Plug-In . SVG Version: 6.00 Build 0)  -->
<svg version="1.1" id="Layer_1" xmlns="http://www.w3.org/2000/svg" xmlns:xlink="http://www.w3.org/1999/xlink" x="0px" y="0px"
	 viewBox="0 0 281.5 323" style="enable-background:new 0 0 281.5 323;" xml:space="preserve">
<style type="text/css">
	
		.st0{opacity:0.8;fill:none;stroke:#FFFFFF;stroke-width:13;stroke-linecap:round;stroke-linejoin:round;enable-background:new    ;}
	.st1{fill:none;}
</style>
<g>
	<polygon class="st0" points="140.7,316.5 274.9,239.3 275,85.1 140.2,251.7 165.4,150.1 141,6.5 7,85.1 6.5,239.2 62.1,116.7 
		62.1,207.6 	"/>
	<polygon class="st0" points="140.7,251.7 6.5,239.7 62.4,207.9 62.4,117 6.5,85.1 140.7,6.8 275,84.6 275,239.2 219.6,116.5 
		165.8,147.3 	"/>
	<circle class="st1" cx="6.8" cy="239.5" r="3.4"/>
	<circle class="st1" cx="6.8" cy="84.9" r="3.4"/>
	<circle class="st1" cx="274.7" cy="239.5" r="3.4"/>
	<circle class="st1" cx="140.5" cy="252" r="3.4"/>
	<circle class="st1" cx="219.3" cy="116.7" r="3.4"/>
	<circle class="st1" cx="165.5" cy="147.5" r="3.4"/>
	<circle class="st1" cx="62.1" cy="207.6" r="3.4"/>
	<circle class="st1" cx="62.1" cy="116.7" r="3.4"/>
	<circle class="st1" cx="140.5" cy="316.2" r="3.4"/>
	<circle class="st1" cx="140.5" cy="7" r="3.4"/>
	<circle class="st1" cx="274.7" cy="84.9" r="3.4"/>
</g>
</svg>
