<?xml version="1.0" encoding="UTF-8"?>
<svg xmlns="http://www.w3.org/2000/svg" version="1.1" viewBox="0 0 281.5 323">
  <defs>
    <style>
      .cls-1, .cls-2 {
        fill: none;
      }

      .cls-2 {
        isolation: isolate;
        opacity: .8;
        stroke: #fff;
        stroke-linecap: round;
        stroke-linejoin: round;
        stroke-width: 13px;
      }
    </style>
  </defs>
  <!-- Generator: Adobe Illustrator 28.6.0, SVG Export Plug-In . SVG Version: 1.2.0 Build 709)  -->
  <g>
    <g id="Layer_1">
      <g>
        <polygon class="cls-2" points="140.7 316.5 274.9 239.3 275 85.1 140.2 251.7 165.4 150.1 141 6.5 7 85.1 6.5 239.2 62.1 116.7 62.1 207.6 140.7 316.5"/>
        <polygon class="cls-2" points="140.7 251.7 6.5 239.7 62.4 207.9 62.4 117 6.5 85.1 140.7 6.8 275 84.6 275 239.2 219.6 116.5 165.8 147.3 140.7 251.7"/>
        <circle class="cls-1" cx="6.8" cy="239.5" r="3.4"/>
        <circle class="cls-1" cx="6.8" cy="84.9" r="3.4"/>
        <circle class="cls-1" cx="274.7" cy="239.5" r="3.4"/>
        <circle class="cls-1" cx="140.5" cy="252" r="3.4"/>
        <circle class="cls-1" cx="219.3" cy="116.7" r="3.4"/>
        <circle class="cls-1" cx="165.5" cy="147.5" r="3.4"/>
        <circle class="cls-1" cx="62.1" cy="207.6" r="3.4"/>
        <circle class="cls-1" cx="62.1" cy="116.7" r="3.4"/>
        <circle class="cls-1" cx="140.5" cy="316.2" r="3.4"/>
        <circle class="cls-1" cx="140.5" cy="7" r="3.4"/>
        <circle class="cls-1" cx="274.7" cy="84.9" r="3.4"/>
      </g>
    </g>
  </g>
</svg>