<?xml version="1.0" encoding="utf-8"?>
<!-- Generator: Adobe Illustrator 28.0.0, SVG Export Plug-In . SVG Version: 6.00 Build 0)  -->
<svg version="1.1" id="Layer_1" xmlns="http://www.w3.org/2000/svg" xmlns:xlink="http://www.w3.org/1999/xlink" x="0px" y="0px"
	 viewBox="0 0 182.9 50.3" style="enable-background:new 0 0 182.9 50.3;" xml:space="preserve">
<style type="text/css">
	.st0{fill:#FFFFFF;}
</style>
<g>
	<path class="st0" d="M5.8,13V7.2c0-0.6-0.1-1.1-0.4-1.6C4.9,5.2,4.4,5,3.8,5C3.4,5,3,5.2,2.6,5.4C2.3,5.7,2,6,1.8,6.4
		C1.7,6.8,1.6,7.2,1.5,7.6c0,0.4,0,0.8,0,1.2V13H0V3.9h1.3l0.1,1.4C1.5,5,1.7,4.8,1.9,4.6c0.2-0.2,0.4-0.4,0.7-0.5
		C2.8,4,3.1,3.9,3.4,3.8c0.3-0.1,0.5-0.1,0.8-0.1C5.1,3.6,5.9,4,6.5,4.6c0.6,0.7,0.8,1.6,0.8,2.5v6L5.8,13z"/>
	<path class="st0" d="M17.8,8v0.5c0,0.2,0,0.3,0,0.5h-6.5c0,0.4,0.1,0.9,0.2,1.2c0.1,0.4,0.4,0.7,0.6,1c0.4,0.4,1,0.7,1.7,0.6
		c0.6,0,1.2-0.2,1.7-0.6c0.1-0.1,0.2-0.3,0.3-0.4c0.1-0.2,0.2-0.4,0.2-0.6h1.5c-0.1,0.5-0.2,0.9-0.5,1.3c-0.2,0.4-0.6,0.7-0.9,1
		c-0.3,0.2-0.7,0.4-1.1,0.5c-0.4,0.1-0.8,0.2-1.2,0.2c-0.6,0-1.2-0.1-1.7-0.4c-0.5-0.2-0.9-0.6-1.3-1c-0.4-0.4-0.7-1-0.9-1.5
		C9.9,9.7,9.8,9.1,9.8,8.4c0-0.5,0-1,0.2-1.6c0.1-0.5,0.3-0.9,0.5-1.4c0.3-0.6,0.8-1,1.4-1.4c0.6-0.4,1.3-0.6,2.1-0.5
		c0.5,0,1.1,0.1,1.6,0.3c0.5,0.2,0.9,0.5,1.2,0.9c0.4,0.4,0.7,0.9,0.9,1.4C17.7,6.8,17.8,7.4,17.8,8z M16.3,7.6c0-0.3,0-0.7-0.1-1
		c-0.1-0.3-0.2-0.6-0.4-0.8c-0.2-0.3-0.4-0.5-0.7-0.6C14.7,5,14.3,4.9,13.9,5c-0.4,0-0.7,0.1-1.1,0.2c-0.3,0.1-0.6,0.4-0.9,0.6
		c-0.2,0.3-0.4,0.5-0.5,0.9c-0.1,0.3-0.2,0.7-0.2,1L16.3,7.6z"/>
	<path class="st0" d="M25,12.9c-0.2,0.1-0.5,0.1-0.8,0.2c-0.4,0.1-0.7,0.1-1.1,0.1c-0.4,0-0.8-0.1-1.2-0.2c-0.3-0.1-0.6-0.3-0.8-0.6
		c-0.2-0.2-0.3-0.5-0.4-0.8c-0.1-0.3-0.1-0.6-0.1-0.9V5.2h-1.8V3.9h1.8V1.6l1.5-0.4v2.7h2.7v1.3h-2.7v5.3c0,0.3,0.1,0.7,0.3,0.9
		c0.3,0.2,0.6,0.3,0.9,0.3c0.2,0,0.4,0,0.5,0l0.5-0.1l0.5-0.1L25,12.9z"/>
	<path class="st0" d="M33.1,13V7.2c0-0.6-0.1-1.1-0.5-1.6c-0.7-0.7-1.9-0.8-2.7-0.2c-0.3,0.3-0.6,0.6-0.8,1
		c-0.2,0.4-0.2,0.8-0.3,1.2c0,0.4,0,0.8,0,1.2V13h-1.6V0h1.5v5.1C29,4.6,29.4,4.3,29.9,4c0.5-0.2,1-0.4,1.5-0.4
		c0.9-0.1,1.7,0.3,2.4,0.9c0.6,0.7,0.9,1.6,0.8,2.5v6L33.1,13z"/>
	<path class="st0" d="M45.1,8v0.5c0,0.2,0,0.3,0,0.5h-6.5c0,0.4,0.1,0.9,0.2,1.2c0.1,0.4,0.4,0.7,0.7,1c0.4,0.4,1,0.7,1.7,0.6
		c0.6,0,1.2-0.2,1.7-0.6c0.1-0.1,0.2-0.3,0.3-0.4c0.1-0.2,0.2-0.4,0.2-0.6H45c-0.1,0.5-0.2,0.9-0.5,1.3c-0.2,0.4-0.6,0.7-0.9,1
		c-0.3,0.2-0.7,0.4-1.1,0.5c-0.4,0.1-0.8,0.2-1.2,0.2c-0.6,0-1.2-0.1-1.8-0.4c-0.5-0.2-0.9-0.6-1.3-1c-0.4-0.4-0.7-1-0.8-1.5
		c-0.2-0.6-0.3-1.2-0.3-1.9c0-0.5,0-1,0.2-1.6c0.1-0.5,0.3-0.9,0.5-1.4c0.3-0.6,0.8-1,1.4-1.4c0.6-0.4,1.3-0.6,2.1-0.5
		c0.5,0,1.1,0.1,1.6,0.3c0.5,0.2,0.9,0.5,1.2,0.9c0.4,0.4,0.7,0.9,0.8,1.4C45,6.8,45.1,7.4,45.1,8z M43.6,7.6c0-0.3,0-0.7-0.1-1
		c-0.1-0.3-0.2-0.6-0.4-0.8c-0.2-0.3-0.4-0.5-0.7-0.6C41.9,5,41.6,5,41.2,5c-0.4,0-0.7,0.1-1.1,0.2c-0.3,0.1-0.6,0.4-0.8,0.6
		c-0.2,0.3-0.4,0.5-0.5,0.9c-0.1,0.3-0.2,0.7-0.2,1L43.6,7.6z"/>
	<path class="st0" d="M52.6,5.4l-0.4-0.1c-0.1,0-0.3,0-0.4,0c-0.3,0-0.7,0.1-1,0.2C50.5,5.7,50.2,5.8,50,6c-0.2,0.2-0.3,0.4-0.4,0.6
		c-0.1,0.2-0.2,0.5-0.3,0.7c-0.1,0.3-0.1,0.5-0.1,0.8c0,0.3,0,0.5,0,0.8v4h-1.5V3.9H49l0.1,1.6c0.2-0.5,0.6-1,1.1-1.2
		c0.5-0.3,1-0.4,1.6-0.4c0.2,0,0.5,0,0.7,0.1V5.4z"/>
	<path class="st0" d="M57.5,13L57.3,13c-0.3,0-0.5,0.1-0.8,0.1c-0.6,0-1.1-0.2-1.5-0.6c-0.3-0.5-0.5-1.1-0.5-1.6V0h1.5v10.8
		c0,0.2,0,0.5,0.2,0.7c0.2,0.2,0.4,0.3,0.7,0.2h0.5c0,0,0.1,0,0.1,0V13z"/>
	<path class="st0" d="M67.5,12.9C67.3,13,67.1,13,67,13.1c-0.2,0-0.3,0-0.5,0c-0.4,0-0.7-0.1-1-0.4c-0.2-0.3-0.4-0.6-0.3-1l0,0
		c-0.3,0.5-0.7,0.9-1.2,1.1c-0.5,0.3-1.1,0.4-1.8,0.4c-0.5,0-0.9-0.1-1.4-0.2c-0.4-0.1-0.7-0.4-1-0.6c-0.3-0.3-0.5-0.6-0.6-0.9
		c-0.1-0.3-0.2-0.7-0.2-1c0-0.3,0.1-0.6,0.2-0.9c0.1-0.3,0.3-0.6,0.5-0.9c0.3-0.3,0.6-0.5,1-0.7c0.5-0.2,1-0.3,1.5-0.3L65,7.4V6.8
		c0-0.2,0-0.5,0-0.7c-0.1-0.3-0.2-0.5-0.4-0.7C64.4,5.2,64.2,5.1,64,5c-0.3-0.1-0.6-0.1-0.9-0.1c-0.3,0-0.7,0-1,0.2
		c-0.2,0.1-0.4,0.2-0.6,0.4C61.2,5.7,61,6.1,61,6.5h-1.5c0-0.4,0.1-0.7,0.2-1.1c0.1-0.3,0.3-0.6,0.6-0.8C60.6,4.3,61,4,61.5,3.9
		c0.5-0.2,1-0.3,1.6-0.2c0.7,0,1.5,0.1,2.1,0.5c0.5,0.3,0.9,0.7,1.1,1.2c0.2,0.4,0.3,0.9,0.3,1.4v4.4c0,0.2,0,0.3,0.1,0.5
		c0.1,0.1,0.2,0.1,0.4,0.1h0.1h0.1h0.1V12.9z M65,8.6l-2.4,0.1c-0.2,0-0.5,0.1-0.7,0.1c-0.2,0.1-0.4,0.2-0.6,0.3
		c-0.2,0.1-0.4,0.3-0.5,0.5c-0.1,0.2-0.2,0.5-0.2,0.7c0,0.4,0.1,0.8,0.4,1.1c0.4,0.4,0.9,0.5,1.4,0.5c0.3,0,0.7-0.1,1-0.2
		c0.3-0.1,0.6-0.3,0.9-0.6c0.3-0.3,0.5-0.6,0.6-1C65,9.9,65,9.5,65,9.1L65,8.6z"/>
	<path class="st0" d="M75.7,13V7.2c0-0.6-0.1-1.1-0.5-1.6c-0.7-0.7-1.9-0.8-2.7-0.2c-0.3,0.3-0.6,0.6-0.8,1
		c-0.2,0.4-0.3,0.8-0.3,1.2c0,0.4,0,0.8,0,1.2V13h-1.6V3.9h1.3l0.1,1.4c0.1-0.3,0.3-0.5,0.5-0.7c0.2-0.2,0.4-0.4,0.7-0.5
		C72.8,4,73,3.9,73.3,3.8c0.3-0.1,0.5-0.1,0.8-0.1C75,3.6,75.8,4,76.4,4.6c0.6,0.7,0.9,1.6,0.8,2.5v6L75.7,13z"/>
	<path class="st0" d="M86.4,13l-0.1-1.2c-0.3,0.4-0.7,0.8-1.2,1c-0.5,0.2-1,0.4-1.6,0.4c-0.5,0-1-0.1-1.5-0.3
		c-0.4-0.1-0.8-0.4-1.1-0.7c-0.5-0.5-0.8-1-1-1.6c-0.2-0.7-0.3-1.4-0.3-2.1c0-0.8,0.1-1.5,0.3-2.2c0.2-0.6,0.5-1.2,1-1.7
		c0.3-0.3,0.7-0.5,1.1-0.7c0.5-0.2,0.9-0.3,1.4-0.3c0.3,0,0.5,0,0.8,0.1C84.5,3.8,84.8,3.9,85,4c0.2,0.1,0.5,0.2,0.7,0.4
		C85.9,4.6,86,4.7,86.2,5V0h1.5v13L86.4,13z M86.3,8.4c0-0.6-0.1-1.1-0.2-1.6c-0.1-0.5-0.4-0.9-0.8-1.3c-0.2-0.2-0.4-0.3-0.6-0.4
		c-0.3-0.1-0.6-0.2-0.8-0.2c-0.4,0-0.9,0.1-1.3,0.3c-0.3,0.2-0.6,0.5-0.8,0.8c-0.2,0.3-0.3,0.7-0.4,1.1c-0.1,0.4-0.1,0.8-0.1,1.3
		c0,0.4,0,0.8,0.1,1.2c0.1,0.4,0.2,0.8,0.4,1.1c0.2,0.3,0.5,0.6,0.8,0.8c0.4,0.2,0.8,0.3,1.3,0.3c0.3,0,0.6,0,0.8-0.1
		c0.2-0.1,0.4-0.3,0.6-0.4c0.4-0.3,0.7-0.8,0.8-1.3C86.3,9.6,86.3,9,86.3,8.4z"/>
	<path class="st0" d="M97.9,10.3c0,0.4-0.1,0.7-0.2,1.1c-0.1,0.3-0.3,0.6-0.5,0.8c-0.4,0.4-0.8,0.6-1.3,0.8c-1.1,0.3-2.2,0.3-3.3,0
		c-0.5-0.2-1-0.4-1.3-0.8c-0.3-0.3-0.5-0.6-0.7-1c-0.1-0.4-0.2-0.7-0.2-1.1h1.5c0,0.3,0.1,0.6,0.2,0.8c0.1,0.2,0.3,0.4,0.5,0.6
		c0.2,0.2,0.5,0.3,0.8,0.3c0.3,0.1,0.6,0.1,0.9,0.1c0.3,0,0.6,0,0.9-0.1c0.3-0.1,0.6-0.2,0.8-0.4c0.1-0.1,0.3-0.2,0.3-0.4
		c0.1-0.2,0.1-0.4,0.1-0.6c0-0.3-0.1-0.6-0.4-0.8c-0.3-0.3-0.7-0.4-1.1-0.4l-0.4-0.1L94,9L93.4,9l-0.5-0.1c-0.6-0.1-1.2-0.4-1.6-0.8
		c-0.4-0.5-0.6-1.1-0.6-1.7c0-0.3,0.1-0.7,0.2-1c0.1-0.3,0.3-0.6,0.5-0.8c0.3-0.3,0.7-0.6,1.1-0.7c0.5-0.2,1-0.3,1.6-0.3
		c0.6,0,1.1,0.1,1.7,0.3c0.5,0.2,0.9,0.5,1.2,0.9c0.2,0.2,0.4,0.5,0.5,0.8c0.1,0.3,0.2,0.7,0.2,1h-1.5c0-0.2-0.1-0.5-0.2-0.7
		c-0.1-0.2-0.2-0.3-0.3-0.5c-0.4-0.3-0.9-0.5-1.5-0.5h-0.5C93.4,5,93.2,5,93,5.1c-0.3,0.1-0.5,0.3-0.7,0.5c-0.2,0.2-0.2,0.5-0.2,0.7
		c0,0.3,0.1,0.6,0.3,0.8c0.3,0.2,0.6,0.3,0.9,0.3l0.9,0.1c0.4,0,0.8,0.1,1.3,0.2c0.6,0.1,1.2,0.4,1.6,0.8
		C97.6,9.1,97.9,9.7,97.9,10.3z"/>
	<path class="st0" d="M117.1,38.9c0,0.6-0.2,1.2-0.3,1.7c-0.2,0.5-0.4,1-0.8,1.5c-0.5,0.7-1.2,1.2-2,1.6c-0.9,0.5-2,0.7-3,0.7
		c-1,0-2.1-0.2-3-0.7c-0.8-0.4-1.5-0.9-2.1-1.6c-0.5-0.7-1-1.5-1.2-2.4c-0.5-1.9-0.5-4,0-5.9c0.3-0.9,0.7-1.7,1.2-2.4
		c1.3-1.5,3.1-2.3,5.1-2.3c1,0,2.1,0.2,3,0.7c0.8,0.4,1.5,1,2,1.6c0.3,0.4,0.6,0.9,0.8,1.5c0.2,0.5,0.3,1.1,0.3,1.7h-3.5
		c0-0.2-0.1-0.5-0.1-0.7c-0.1-0.2-0.2-0.4-0.3-0.6c-0.2-0.3-0.5-0.6-0.9-0.8c-0.4-0.2-0.9-0.3-1.4-0.3c-0.4,0-0.9,0.1-1.2,0.3
		c-0.3,0.2-0.6,0.4-0.9,0.6c-0.4,0.5-0.7,1.1-0.8,1.7c-0.1,0.7-0.2,1.3-0.2,2c0,0.7,0.1,1.3,0.2,2c0.1,0.6,0.4,1.2,0.8,1.7
		c0.3,0.3,0.6,0.5,0.9,0.7c0.4,0.2,0.8,0.3,1.2,0.3c0.5,0,1-0.1,1.4-0.3c0.4-0.2,0.6-0.5,0.9-0.8c0.1-0.2,0.2-0.4,0.3-0.6
		c0.1-0.2,0.1-0.5,0.1-0.7L117.1,38.9z"/>
	<path class="st0" d="M143,44.1v-8.9c0-0.7-0.1-1.4-0.5-2c-0.5-0.5-1.2-0.8-1.9-0.7c-0.6,0-1.1,0.2-1.5,0.5c-0.4,0.4-0.8,0.8-1,1.3
		c-0.3,0.6-0.4,1.2-0.4,1.9c0,0.7-0.1,1.4-0.1,2v5.9h-3.5V29.5h2.9l0.2,1.9c0.4-0.8,1.1-1.3,1.8-1.7c0.8-0.4,1.6-0.5,2.4-0.5
		c0.7,0,1.4,0.1,2.1,0.4c0.6,0.2,1.1,0.6,1.5,1.1c0.4,0.5,0.8,1,1,1.7c0.2,0.7,0.3,1.4,0.3,2.1V44L143,44.1z"/>
	<path class="st0" d="M158,43.8c-1,0.3-2,0.4-3,0.4c-1.2,0.1-2.4-0.3-3.3-1.2c-0.8-0.9-1.2-2.1-1.1-3.3v-7.4h-2.7v-2.9h2.7v-3.7
		l3.5-0.9v4.6h3.7v2.9h-3.7v7.1c0,0.4,0.1,0.9,0.4,1.2c0.3,0.3,0.8,0.4,1.2,0.4c0.4,0,0.7,0,1,0c0.3,0,0.7,0,1.2-0.1L158,43.8z"/>
	<path class="st0" d="M182.9,32.7c-0.4-0.1-0.8-0.1-1.2-0.1c-1.1-0.1-2.1,0.4-2.8,1.2c-0.7,0.8-1,1.9-1,2.9V44h-3.5V29.5h3l0.3,2.2
		c0.3-0.8,0.9-1.5,1.7-1.9c0.8-0.4,1.6-0.6,2.4-0.6c0.4,0,0.7,0,1.1,0.1V32.7z"/>
	<path class="st0" d="M2.2,32.8c-0.3-0.3-0.6-0.5-0.9-0.6C0.9,32,0.5,31.9,0,31.9l0,0v3.4h3.1C3.2,34.4,2.8,33.5,2.2,32.8z"/>
	<path class="st0" d="M54.9,32.1c-0.4-0.2-0.9-0.2-1.3-0.2c-0.5,0-1,0.1-1.4,0.3c-0.4,0.2-0.7,0.5-1,0.8c-0.2,0.3-0.4,0.6-0.6,1
		c-0.1,0.4-0.2,0.8-0.2,1.3h6.3c0-0.9-0.3-1.8-0.9-2.5C55.5,32.5,55.2,32.3,54.9,32.1z"/>
	<path class="st0" d="M95.5,33c-0.2,0.3-0.4,0.6-0.6,1c-0.1,0.4-0.2,0.8-0.2,1.3h3.1v-3.4c-0.5,0-0.9,0.1-1.4,0.3
		C96.1,32.4,95.7,32.7,95.5,33z"/>
	<path class="st0" d="M95,39.5c0.2,0.5,0.4,0.9,0.8,1.3c0.3,0.3,0.6,0.5,0.9,0.6c0.4,0.2,0.7,0.3,1.1,0.3v-3.8h-3.1
		C94.7,38.4,94.8,38.9,95,39.5z"/>
	<path class="st0" d="M95.4,43.9c-0.7-0.3-1.4-0.8-2-1.3c-0.7-0.7-1.3-1.6-1.7-2.5c-0.4-1-0.6-2.1-0.6-3.3c0-1.1,0.2-2.2,0.5-3.3
		c0.3-1,0.9-1.8,1.6-2.6c0.6-0.6,1.3-1,2-1.4c0.8-0.3,1.7-0.5,2.6-0.5V26c0-3.3-2.7-6-6-6H0v9.1h0.1c1,0,2.1,0.2,3,0.7
		c0.9,0.4,1.7,1.1,2.3,2c0.5,0.7,0.8,1.6,1,2.5c0.1,0.8,0.2,1.6,0.2,2.5v1.1H0v3.8h0.1c0.4,0,0.8,0,1.3-0.2c0.3-0.1,0.6-0.3,0.9-0.5
		c0.3-0.3,0.6-0.8,0.7-1.2h3.3c-0.1,0.5-0.2,1-0.4,1.4C5.6,41.5,5.3,42,5,42.4c-0.6,0.7-1.3,1.3-2.2,1.6c-0.9,0.3-1.8,0.5-2.7,0.5H0
		c0.1,3.3,2.7,5.9,6,5.8h91.9v-5.9C97,44.4,96.2,44.2,95.4,43.9z M23.5,40.6c-0.3,0.6-0.7,1.2-1.2,1.7c-0.8,0.8-1.7,1.3-2.8,1.6
		c-1.1,0.3-2.3,0.5-3.5,0.5c-1.1,0-2.1-0.2-3.2-0.5c-1-0.3-2-0.8-2.8-1.6c-0.6-0.6-1.1-1.2-1.5-2c-0.4-0.8-0.6-1.7-0.6-2.6h3.7
		c0,0.5,0.1,0.9,0.2,1.4c0.2,0.4,0.4,0.8,0.8,1.1c0.4,0.4,1,0.7,1.6,0.9c1.2,0.3,2.5,0.3,3.7,0c0.6-0.1,1.1-0.4,1.5-0.8
		c0.2-0.2,0.4-0.5,0.6-0.8c0.2-0.4,0.2-0.7,0.2-1.1c0-0.6-0.2-1.2-0.7-1.7c-0.5-0.4-1-0.6-1.6-0.7c-0.7-0.1-1.5-0.2-2.2-0.3
		c-0.8-0.1-1.5-0.1-2.2-0.2c-0.7-0.1-1.3-0.3-2-0.6c-0.6-0.3-1.1-0.6-1.6-1.1c-0.5-0.5-0.8-1-1-1.7c-0.3-0.7-0.5-1.5-0.4-2.2
		c0-0.7,0.1-1.5,0.4-2.1c0.3-0.7,0.7-1.3,1.3-1.8c0.7-0.7,1.6-1.2,2.5-1.5c2.1-0.7,4.3-0.7,6.4-0.1c0.9,0.3,1.8,0.8,2.5,1.4
		c0.6,0.5,1.1,1.2,1.5,1.9c0.4,0.7,0.6,1.5,0.6,2.3H20c0-0.4-0.1-0.7-0.3-1.1c-0.2-0.3-0.4-0.6-0.6-0.9c-0.4-0.4-0.8-0.6-1.3-0.8
		C17.2,27,16.7,27,16.1,27c-0.6,0-1.2,0.1-1.7,0.2c-0.6,0.1-1.1,0.4-1.5,0.9c-0.2,0.2-0.4,0.5-0.5,0.7c-0.1,0.3-0.2,0.6-0.2,1
		c0,0.6,0.2,1.1,0.6,1.5c0.4,0.4,0.9,0.6,1.5,0.7c0.6,0.1,1.3,0.2,2.1,0.3s1.5,0.2,2.2,0.3c0.7,0.1,1.4,0.3,2.1,0.6
		c0.6,0.3,1.2,0.7,1.7,1.2c0.5,0.5,0.9,1.1,1.2,1.7c0.3,0.7,0.4,1.5,0.4,2.3C24,39,23.9,39.8,23.5,40.6z M29.4,38.7
		c0.1,0.6,0.4,1.2,0.8,1.7c0.3,0.3,0.6,0.5,0.9,0.7c0.8,0.4,1.8,0.4,2.6,0c0.4-0.2,0.6-0.5,0.9-0.8c0.1-0.2,0.2-0.4,0.3-0.6
		c0.1-0.2,0.1-0.5,0.1-0.7h3.5c0,0.6-0.2,1.2-0.3,1.7c-0.2,0.5-0.4,1-0.8,1.5c-0.5,0.7-1.2,1.2-2,1.6c-0.9,0.5-2,0.7-3,0.7
		c-1,0-2.1-0.2-3-0.7c-0.8-0.4-1.5-0.9-2.1-1.6c-0.5-0.7-1-1.5-1.2-2.4c-0.5-1.9-0.5-4,0-5.9c0.3-0.9,0.7-1.7,1.2-2.4
		c1.3-1.5,3.1-2.3,5.1-2.3c1,0,2.1,0.2,3,0.7c0.8,0.4,1.5,1,2,1.6c0.3,0.4,0.6,0.9,0.8,1.5c0.2,0.5,0.3,1.1,0.3,1.7H35
		c0-0.2-0.1-0.5-0.1-0.7c-0.1-0.2-0.2-0.4-0.3-0.6c-0.2-0.3-0.5-0.6-0.9-0.8c-0.4-0.2-0.9-0.3-1.4-0.3c-0.4,0-0.9,0.1-1.2,0.3
		c-0.3,0.2-0.6,0.4-0.9,0.6c-0.4,0.5-0.7,1.1-0.8,1.7c-0.1,0.7-0.2,1.3-0.2,2C29.3,37.4,29.3,38.1,29.4,38.7z M44.4,44.1h-3.6V29.5
		h3.6V44.1z M44.4,27.5h-3.8v-3.6h3.8L44.4,27.5z M60.2,37.8h-9.8c0,0.5,0.1,1.1,0.3,1.6c0.2,0.5,0.4,0.9,0.8,1.3
		c0.3,0.3,0.6,0.5,0.9,0.6c0.4,0.2,0.8,0.3,1.2,0.3c0.4,0,0.8,0,1.2-0.2c0.3-0.1,0.6-0.3,0.9-0.5c0.3-0.3,0.6-0.8,0.7-1.2h3.4
		c-0.1,0.5-0.2,1-0.4,1.4c-0.2,0.5-0.5,0.9-0.8,1.3c-0.6,0.7-1.3,1.3-2.2,1.6c-0.9,0.3-1.8,0.5-2.7,0.5c-0.9,0-1.8-0.2-2.6-0.5
		c-1.7-0.7-3-2.1-3.6-3.8c-0.4-1-0.6-2.1-0.6-3.2c0-1.1,0.2-2.2,0.5-3.3c0.3-1,0.9-1.8,1.6-2.6c0.6-0.6,1.3-1,2-1.4
		c0.8-0.4,1.8-0.5,2.7-0.5c1,0,2.1,0.2,3,0.7c0.9,0.4,1.7,1.1,2.3,2c0.5,0.7,0.8,1.6,1,2.5c0.1,0.8,0.2,1.6,0.2,2.5L60.2,37.8
		L60.2,37.8z M75,44.1h-3.5v-8.9c0-0.7-0.1-1.4-0.5-2c-0.5-0.5-1.2-0.8-1.9-0.7c-0.6,0-1.1,0.2-1.5,0.5c-0.4,0.4-0.8,0.8-1,1.3
		c-0.3,0.6-0.4,1.2-0.4,1.9c0,0.7-0.1,1.4-0.1,2v5.9h-3.5V29.5h3l0.2,1.9c0.4-0.8,1.1-1.3,1.8-1.7c0.7-0.3,1.5-0.5,2.4-0.5
		c0.7,0,1.4,0.1,2.1,0.4c0.6,0.2,1.1,0.6,1.5,1.1c0.4,0.5,0.8,1,1,1.7c0.2,0.7,0.4,1.4,0.4,2.1V44.1z M80.9,38.7
		c0.1,0.6,0.4,1.2,0.8,1.7c0.3,0.3,0.6,0.5,0.9,0.7c0.8,0.4,1.8,0.4,2.6,0c0.4-0.2,0.6-0.5,0.9-0.8c0.1-0.2,0.2-0.4,0.3-0.6
		c0.1-0.2,0.1-0.5,0.1-0.7H90c0,0.6-0.2,1.2-0.3,1.7c-0.2,0.5-0.4,1-0.8,1.5c-1.2,1.5-3.1,2.3-5,2.3c-1.9,0-3.8-0.8-5.1-2.3
		c-0.6-0.7-1-1.5-1.2-2.4c-0.5-1.9-0.5-4,0-5.9c0.2-0.9,0.7-1.7,1.2-2.4c1.3-1.5,3.1-2.3,5.1-2.3c1.9,0,3.8,0.8,5,2.3
		c0.3,0.4,0.6,0.9,0.8,1.5c0.2,0.5,0.3,1.1,0.3,1.6h-3.5c0-0.2-0.1-0.5-0.1-0.7c-0.1-0.2-0.2-0.4-0.3-0.6c-0.2-0.3-0.5-0.6-0.9-0.8
		c-0.4-0.2-0.9-0.3-1.4-0.3c-0.4,0-0.9,0.1-1.2,0.3c-0.3,0.2-0.6,0.4-0.9,0.6c-0.4,0.5-0.7,1.1-0.8,1.7c-0.1,0.7-0.2,1.3-0.2,2
		C80.7,37.4,80.8,38.1,80.9,38.7L80.9,38.7z"/>
	<path class="st0" d="M131.7,36.7c0-0.8-0.1-1.6-0.2-2.5c-0.2-0.9-0.5-1.7-1-2.5c-0.6-0.9-1.4-1.6-2.3-2c-0.9-0.4-2-0.7-3-0.7
		c-0.9,0-1.8,0.1-2.7,0.5c-0.7,0.3-1.4,0.8-2,1.4c-0.7,0.7-1.3,1.6-1.6,2.6c-0.4,1.1-0.5,2.2-0.5,3.3c0,1.1,0.2,2.2,0.6,3.3
		c0.6,1.7,1.9,3.1,3.6,3.8c0.8,0.3,1.7,0.5,2.6,0.5c0.9,0,1.8-0.2,2.7-0.5c0.9-0.3,1.6-0.9,2.2-1.6c0.3-0.4,0.6-0.8,0.8-1.3
		c0.2-0.4,0.4-0.9,0.4-1.4H128c-0.1,0.5-0.4,0.9-0.7,1.2c-0.2,0.3-0.6,0.4-0.9,0.5c-0.4,0.1-0.8,0.2-1.2,0.2c-0.4,0-0.9-0.1-1.2-0.3
		c-0.3-0.2-0.6-0.4-0.9-0.6c-0.4-0.3-0.6-0.8-0.8-1.3c-0.2-0.5-0.3-1.1-0.3-1.6h9.8L131.7,36.7z M121.9,35.3c0-0.4,0.1-0.9,0.2-1.3
		c0.1-0.4,0.3-0.7,0.6-1c0.3-0.3,0.6-0.6,1-0.8c0.4-0.2,0.9-0.3,1.4-0.3c0.4,0,0.9,0.1,1.3,0.2c0.3,0.1,0.7,0.3,0.9,0.6
		c0.6,0.7,0.9,1.6,0.9,2.5L121.9,35.3z"/>
	<path class="st0" d="M172.1,36.7c0-0.8-0.1-1.6-0.2-2.5c-0.2-0.9-0.5-1.7-1-2.5c-0.6-0.9-1.4-1.6-2.3-2c-0.9-0.4-2-0.7-3-0.7
		c-0.9,0-1.8,0.1-2.7,0.5c-0.7,0.3-1.4,0.8-2,1.4c-0.7,0.7-1.3,1.6-1.6,2.6c-0.4,1.1-0.5,2.2-0.5,3.3c0,1.1,0.2,2.2,0.6,3.3
		c0.4,0.9,0.9,1.8,1.6,2.5c0.6,0.5,1.3,1,2,1.3c0.8,0.3,1.7,0.5,2.6,0.5c0.9,0,1.8-0.2,2.7-0.5c0.9-0.3,1.6-0.9,2.2-1.6
		c0.3-0.4,0.6-0.8,0.8-1.3c0.2-0.4,0.4-0.9,0.4-1.4h-3.4c-0.1,0.5-0.4,0.9-0.7,1.2c-0.2,0.3-0.6,0.4-0.9,0.5
		c-0.4,0.1-0.8,0.2-1.2,0.2c-0.4,0-0.9-0.1-1.2-0.3c-0.3-0.2-0.6-0.4-0.9-0.6c-0.4-0.3-0.6-0.8-0.8-1.3c-0.2-0.5-0.3-1.1-0.3-1.6
		h9.8L172.1,36.7z M162.3,35.3c0-0.4,0.1-0.9,0.2-1.3c0.1-0.4,0.3-0.7,0.6-1c0.3-0.3,0.6-0.6,1-0.8c0.4-0.2,0.9-0.3,1.4-0.3
		c0.4,0,0.9,0.1,1.3,0.2c0.3,0.1,0.7,0.3,0.9,0.6c0.6,0.7,0.9,1.6,0.9,2.5L162.3,35.3z"/>
</g>
</svg>
