<?xml version="1.0" encoding="UTF-8"?>
<svg id="Layer_1" xmlns="http://www.w3.org/2000/svg" viewBox="0 0 311.26 51.68">
  <defs>
    <style>
      .cls-1 {
        fill: none;
        stroke: #fff;
        stroke-miterlimit: 10;
      }

      .cls-2 {
        fill: #fff;
      }
    </style>
  </defs>
  <g>
    <path class="cls-2" d="M136.48,28.66l5.06-13.17h1.88l5.39,13.17h-1.99l-1.54-3.99h-5.51l-1.45,3.99h-1.85ZM140.28,23.25h4.47l-1.37-3.65c-.42-1.11-.73-2.02-.93-2.73-.17.84-.4,1.68-.71,2.52l-1.45,3.86Z"/>
    <path class="cls-2" d="M149.98,28.66v-9.54h1.46v1.45c.37-.68.71-1.12,1.03-1.34s.66-.32,1.04-.32c.54,0,1.1.17,1.66.52l-.56,1.5c-.4-.23-.79-.35-1.19-.35-.35,0-.67.11-.95.32-.28.21-.48.51-.6.88-.18.58-.27,1.2-.27,1.89v5h-1.62Z"/>
    <path class="cls-2" d="M162.35,25.17l1.59.21c-.17,1.1-.62,1.95-1.33,2.57-.72.62-1.59.93-2.64.93-1.31,0-2.36-.43-3.15-1.28-.79-.85-1.19-2.08-1.19-3.67,0-1.03.17-1.93.51-2.71.34-.77.86-1.35,1.56-1.74.7-.39,1.46-.58,2.28-.58,1.04,0,1.88.26,2.54.79.66.52,1.08,1.27,1.27,2.23l-1.57.24c-.15-.64-.41-1.12-.79-1.45s-.84-.49-1.38-.49c-.81,0-1.48.29-1.99.88-.51.58-.76,1.51-.76,2.77s.25,2.21.74,2.79c.49.58,1.13.87,1.92.87.63,0,1.17-.19,1.59-.58.43-.39.69-.99.81-1.8Z"/>
    <path class="cls-2" d="M165.32,28.66v-13.17h1.62v4.73c.75-.87,1.71-1.31,2.86-1.31.71,0,1.32.14,1.84.42.52.28.89.66,1.12,1.15s.34,1.2.34,2.14v6.05h-1.62v-6.05c0-.81-.18-1.4-.53-1.76-.35-.37-.85-.55-1.49-.55-.48,0-.93.12-1.35.37-.42.25-.72.58-.9,1.01-.18.42-.27,1.01-.27,1.76v5.22h-1.62Z"/>
    <path class="cls-2" d="M175.56,17.35v-1.86h1.62v1.86h-1.62ZM175.56,28.66v-9.54h1.62v9.54h-1.62Z"/>
    <path class="cls-2" d="M183.17,27.22l.23,1.43c-.46.1-.86.14-1.22.14-.59,0-1.04-.09-1.37-.28s-.55-.43-.68-.73-.2-.94-.2-1.91v-5.49h-1.19v-1.26h1.19v-2.36l1.61-.97v3.33h1.63v1.26h-1.63v5.58c0,.46.03.76.09.89.06.13.15.24.28.31.13.08.31.12.55.12.18,0,.42-.02.71-.06Z"/>
    <path class="cls-2" d="M191.29,25.59l1.67.21c-.26.98-.75,1.73-1.46,2.27s-1.62.81-2.73.81c-1.4,0-2.5-.43-3.32-1.29s-1.23-2.07-1.23-3.62.41-2.85,1.24-3.74c.83-.89,1.9-1.33,3.22-1.33s2.32.43,3.13,1.3,1.21,2.09,1.21,3.67c0,.1,0,.24,0,.43h-7.12c.06,1.05.36,1.85.89,2.41.53.56,1.2.83,1.99.83.59,0,1.1-.16,1.52-.47s.75-.81,1-1.49ZM185.98,22.97h5.33c-.07-.8-.28-1.4-.61-1.81-.51-.62-1.18-.93-2-.93-.74,0-1.37.25-1.87.75-.51.5-.79,1.16-.84,1.99Z"/>
    <path class="cls-2" d="M201.21,25.17l1.59.21c-.17,1.1-.62,1.95-1.33,2.57-.72.62-1.59.93-2.64.93-1.31,0-2.36-.43-3.15-1.28s-1.19-2.08-1.19-3.67c0-1.03.17-1.93.51-2.71.34-.77.86-1.35,1.56-1.74.7-.39,1.46-.58,2.28-.58,1.04,0,1.88.26,2.54.79.66.52,1.08,1.27,1.27,2.23l-1.57.24c-.15-.64-.42-1.12-.8-1.45-.38-.32-.84-.49-1.38-.49-.81,0-1.48.29-1.99.88s-.76,1.51-.76,2.77.25,2.21.74,2.79,1.13.87,1.92.87c.63,0,1.17-.19,1.59-.58.42-.39.69-.99.81-1.8Z"/>
    <path class="cls-2" d="M207.72,27.22l.23,1.43c-.46.1-.86.14-1.22.14-.59,0-1.04-.09-1.37-.28s-.55-.43-.68-.73-.2-.94-.2-1.91v-5.49h-1.19v-1.26h1.19v-2.36l1.61-.97v3.33h1.63v1.26h-1.63v5.58c0,.46.03.76.09.89.06.13.15.24.28.31.13.08.31.12.55.12.18,0,.42-.02.71-.06Z"/>
    <path class="cls-2" d="M215.55,28.66v-1.4c-.74,1.08-1.75,1.62-3.03,1.62-.56,0-1.09-.11-1.58-.32-.49-.22-.85-.49-1.09-.81s-.4-.73-.5-1.2c-.07-.32-.1-.82-.1-1.51v-5.91h1.62v5.29c0,.84.03,1.41.1,1.71.1.43.32.76.65,1,.33.24.74.36,1.22.36s.94-.12,1.37-.37c.43-.25.73-.59.9-1.02.18-.43.26-1.05.26-1.86v-5.11h1.62v9.54h-1.45Z"/>
    <path class="cls-2" d="M219.52,28.66v-9.54h1.46v1.45c.37-.68.71-1.12,1.03-1.34s.66-.32,1.04-.32c.54,0,1.1.17,1.66.52l-.56,1.5c-.4-.23-.79-.35-1.19-.35-.35,0-.67.11-.95.32-.28.21-.48.51-.6.88-.18.58-.27,1.2-.27,1.89v5h-1.62Z"/>
    <path class="cls-2" d="M232.19,25.59l1.67.21c-.26.98-.75,1.73-1.46,2.27s-1.62.81-2.73.81c-1.4,0-2.5-.43-3.32-1.29s-1.23-2.07-1.23-3.62.41-2.85,1.24-3.74c.83-.89,1.9-1.33,3.22-1.33s2.32.43,3.13,1.3,1.21,2.09,1.21,3.67c0,.1,0,.24,0,.43h-7.12c.06,1.05.36,1.85.89,2.41.53.56,1.2.83,1.99.83.59,0,1.1-.16,1.52-.47s.75-.81,1-1.49ZM226.88,22.97h5.33c-.07-.8-.28-1.4-.61-1.81-.51-.62-1.18-.93-2-.93-.74,0-1.37.25-1.87.75-.51.5-.79,1.16-.84,1.99Z"/>
    <path class="cls-2" d="M247.23,27.49c-.6.51-1.18.87-1.73,1.08-.55.21-1.15.31-1.78.31-1.05,0-1.85-.26-2.42-.77-.56-.51-.84-1.17-.84-1.96,0-.47.11-.89.32-1.28.21-.39.49-.7.84-.93s.73-.41,1.16-.53c.32-.08.8-.17,1.44-.24,1.31-.16,2.27-.34,2.88-.56,0-.22,0-.36,0-.42,0-.66-.15-1.12-.46-1.39-.41-.37-1.03-.55-1.84-.55-.76,0-1.32.13-1.68.4-.36.27-.63.74-.8,1.42l-1.58-.22c.14-.68.38-1.22.71-1.64.33-.42.81-.74,1.43-.96.62-.22,1.34-.34,2.17-.34s1.48.1,1.99.29c.51.19.88.43,1.12.72.24.29.41.66.5,1.1.05.28.08.77.08,1.49v2.16c0,1.5.03,2.45.1,2.85.07.4.21.78.41,1.15h-1.69c-.17-.33-.28-.73-.32-1.18ZM247.1,23.87c-.59.24-1.47.44-2.64.61-.67.1-1.14.2-1.41.32-.28.12-.49.29-.64.53-.15.23-.22.49-.22.77,0,.43.16.79.49,1.08.33.29.8.43,1.43.43s1.18-.14,1.66-.41.84-.65,1.07-1.12c.17-.37.26-.9.26-1.62v-.59Z"/>
    <path class="cls-2" d="M251.24,28.66v-9.54h1.46v1.36c.7-1.05,1.71-1.57,3.04-1.57.58,0,1.1.1,1.59.31.48.21.84.48,1.08.81.24.33.41.73.5,1.19.06.3.09.82.09,1.57v5.87h-1.62v-5.8c0-.66-.06-1.15-.19-1.48-.12-.33-.35-.59-.67-.78s-.7-.29-1.13-.29c-.69,0-1.28.22-1.78.66-.5.44-.75,1.27-.75,2.49v5.21h-1.62Z"/>
    <path class="cls-2" d="M267.66,28.66v-1.2c-.61.95-1.5,1.42-2.67,1.42-.76,0-1.46-.21-2.1-.63s-1.13-1-1.48-1.76c-.35-.75-.53-1.62-.53-2.59s.16-1.82.48-2.59c.32-.78.79-1.37,1.43-1.78.63-.41,1.34-.62,2.13-.62.58,0,1.09.12,1.54.36.45.24.81.56,1.1.95v-4.73h1.61v13.17h-1.5ZM262.55,23.9c0,1.22.26,2.14.77,2.74.52.61,1.12.91,1.82.91s1.31-.29,1.8-.87c.49-.58.74-1.46.74-2.65,0-1.31-.25-2.26-.75-2.88-.5-.61-1.12-.92-1.86-.92s-1.32.29-1.8.88c-.48.59-.72,1.51-.72,2.78Z"/>
    <path class="cls-2" d="M141.25,46.37l.23,1.43c-.46.1-.86.14-1.22.14-.59,0-1.04-.09-1.37-.28-.32-.19-.55-.43-.68-.73s-.2-.94-.2-1.91v-5.49h-1.19v-1.26h1.19v-2.36l1.61-.97v3.33h1.63v1.26h-1.63v5.58c0,.46.03.76.09.89.06.13.15.24.28.31.13.08.31.12.55.12.18,0,.42-.02.71-.06Z"/>
    <path class="cls-2" d="M142.83,47.81v-13.17h1.62v4.73c.75-.87,1.71-1.31,2.86-1.31.71,0,1.32.14,1.84.42.52.28.89.66,1.12,1.15s.34,1.2.34,2.14v6.05h-1.62v-6.05c0-.81-.18-1.4-.53-1.76-.35-.37-.85-.55-1.49-.55-.48,0-.93.12-1.35.37-.42.25-.72.58-.9,1.01-.18.42-.27,1.01-.27,1.76v5.22h-1.62Z"/>
    <path class="cls-2" d="M159.6,44.74l1.67.21c-.26.98-.75,1.73-1.46,2.27s-1.62.81-2.73.81c-1.4,0-2.5-.43-3.32-1.29-.82-.86-1.23-2.07-1.23-3.62s.41-2.85,1.24-3.74c.83-.89,1.9-1.33,3.22-1.33s2.32.43,3.13,1.3,1.21,2.09,1.21,3.67c0,.1,0,.24,0,.43h-7.12c.06,1.05.36,1.85.89,2.41.53.56,1.2.83,1.99.83.59,0,1.1-.16,1.52-.47.42-.31.75-.81,1-1.49ZM154.29,42.13h5.33c-.07-.8-.28-1.4-.61-1.81-.52-.62-1.18-.93-2-.93-.74,0-1.37.25-1.87.75-.51.5-.79,1.16-.84,1.99Z"/>
    <path class="cls-2" d="M168.55,47.81v-13.17h4.94c1.01,0,1.81.13,2.42.4.61.27,1.08.68,1.43,1.23.34.55.52,1.13.52,1.74,0,.56-.15,1.09-.46,1.59s-.77.9-1.38,1.2c.8.23,1.41.63,1.84,1.2.43.56.64,1.23.64,1.99,0,.62-.13,1.19-.39,1.72s-.58.94-.97,1.23c-.38.29-.86.5-1.44.65-.58.15-1.29.22-2.12.22h-5.02ZM170.29,40.18h2.85c.77,0,1.33-.05,1.66-.15.44-.13.78-.35,1-.66s.34-.69.34-1.15c0-.44-.1-.82-.31-1.15-.21-.33-.51-.56-.9-.68s-1.06-.18-2-.18h-2.63v3.98ZM170.29,46.26h3.28c.56,0,.96-.02,1.19-.06.4-.07.74-.19,1.01-.36s.49-.41.66-.73.26-.69.26-1.11c0-.49-.13-.92-.38-1.28-.25-.36-.6-.62-1.05-.76s-1.09-.22-1.93-.22h-3.05v4.53Z"/>
    <path class="cls-2" d="M186.94,47.81v-1.4c-.74,1.08-1.75,1.62-3.03,1.62-.56,0-1.09-.11-1.58-.32-.49-.22-.85-.49-1.09-.81s-.4-.73-.5-1.2c-.07-.32-.1-.82-.1-1.51v-5.91h1.62v5.29c0,.84.03,1.41.1,1.71.1.43.32.76.65,1,.33.24.74.36,1.22.36s.94-.12,1.37-.37c.43-.25.73-.59.9-1.02.18-.43.26-1.05.26-1.86v-5.11h1.62v9.54h-1.45Z"/>
    <path class="cls-2" d="M190.93,36.5v-1.86h1.62v1.86h-1.62ZM190.93,47.81v-9.54h1.62v9.54h-1.62Z"/>
    <path class="cls-2" d="M194.97,47.81v-13.17h1.62v13.17h-1.62Z"/>
    <path class="cls-2" d="M202.63,46.37l.23,1.43c-.46.1-.86.14-1.22.14-.59,0-1.04-.09-1.37-.28s-.55-.43-.68-.73-.2-.94-.2-1.91v-5.49h-1.19v-1.26h1.19v-2.36l1.61-.97v3.33h1.63v1.26h-1.63v5.58c0,.46.03.76.09.89.06.13.15.24.28.31.13.08.31.12.55.12.18,0,.42-.02.71-.06Z"/>
    <path class="cls-2" d="M209.56,47.81v-13.17h9.52v1.55h-7.78v4.03h7.29v1.55h-7.29v4.48h8.09v1.55h-9.83Z"/>
    <path class="cls-2" d="M221.59,47.81v-9.54h1.46v1.36c.7-1.05,1.71-1.57,3.04-1.57.58,0,1.1.1,1.59.31.48.21.84.48,1.08.81.24.33.41.73.5,1.19.06.3.09.82.09,1.57v5.87h-1.62v-5.8c0-.66-.06-1.15-.19-1.48-.12-.33-.35-.59-.67-.78s-.7-.29-1.13-.29c-.69,0-1.28.22-1.78.66-.5.44-.75,1.27-.75,2.49v5.21h-1.62Z"/>
    <path class="cls-2" d="M234.47,47.81l-3.63-9.54h1.71l2.05,5.71c.22.62.42,1.26.61,1.92.14-.5.34-1.11.6-1.82l2.12-5.82h1.66l-3.61,9.54h-1.51Z"/>
    <path class="cls-2" d="M241.03,36.5v-1.86h1.62v1.86h-1.62ZM241.03,47.81v-9.54h1.62v9.54h-1.62Z"/>
    <path class="cls-2" d="M245.1,47.81v-9.54h1.46v1.45c.37-.68.71-1.12,1.03-1.34s.66-.32,1.04-.32c.54,0,1.1.17,1.66.52l-.56,1.5c-.4-.23-.79-.35-1.19-.35-.35,0-.67.11-.95.32-.28.21-.48.51-.6.88-.18.58-.27,1.2-.27,1.89v5h-1.62Z"/>
    <path class="cls-2" d="M250.64,43.04c0-1.77.49-3.08,1.47-3.93.82-.71,1.82-1.06,3-1.06,1.31,0,2.38.43,3.22,1.29.83.86,1.25,2.05,1.25,3.56,0,1.23-.18,2.19-.55,2.9s-.9,1.25-1.61,1.64c-.7.39-1.47.58-2.3.58-1.34,0-2.42-.43-3.24-1.29-.82-.86-1.24-2.09-1.24-3.7ZM252.3,43.04c0,1.22.27,2.14.8,2.74.53.61,1.2.91,2.01.91s1.47-.31,2-.92c.53-.61.8-1.54.8-2.79,0-1.18-.27-2.07-.8-2.68-.54-.61-1.2-.91-2-.91s-1.48.3-2.01.91c-.53.6-.8,1.52-.8,2.74Z"/>
    <path class="cls-2" d="M261.47,47.81v-9.54h1.46v1.36c.7-1.05,1.71-1.57,3.04-1.57.58,0,1.1.1,1.59.31.48.21.84.48,1.08.81.24.33.41.73.5,1.19.06.3.09.82.09,1.57v5.87h-1.62v-5.8c0-.66-.06-1.15-.19-1.48-.12-.33-.35-.59-.67-.78s-.7-.29-1.13-.29c-.69,0-1.28.22-1.78.66-.5.44-.75,1.27-.75,2.49v5.21h-1.62Z"/>
    <path class="cls-2" d="M271.71,47.81v-9.54h1.45v1.34c.3-.47.7-.84,1.2-1.13s1.06-.43,1.7-.43c.71,0,1.29.15,1.74.44.45.29.77.7.96,1.23.75-1.11,1.74-1.67,2.95-1.67.95,0,1.67.26,2.18.79.51.52.76,1.33.76,2.42v6.55h-1.61v-6.01c0-.65-.05-1.11-.16-1.4-.1-.29-.29-.51-.57-.69s-.6-.26-.97-.26c-.67,0-1.23.22-1.67.67-.44.45-.67,1.16-.67,2.14v5.54h-1.62v-6.2c0-.72-.13-1.26-.4-1.62s-.69-.54-1.29-.54c-.46,0-.88.12-1.26.36s-.67.59-.84,1.05c-.17.46-.26,1.13-.26,2v4.95h-1.62Z"/>
    <path class="cls-2" d="M293.56,44.74l1.67.21c-.26.98-.75,1.73-1.46,2.27s-1.62.81-2.73.81c-1.4,0-2.5-.43-3.32-1.29s-1.23-2.07-1.23-3.62.41-2.85,1.24-3.74c.83-.89,1.9-1.33,3.22-1.33s2.32.43,3.13,1.3,1.21,2.09,1.21,3.67c0,.1,0,.24,0,.43h-7.12c.06,1.05.36,1.85.89,2.41.53.56,1.2.83,1.99.83.59,0,1.1-.16,1.52-.47s.75-.81,1-1.49ZM288.26,42.13h5.33c-.07-.8-.28-1.4-.61-1.81-.51-.62-1.18-.93-2-.93-.74,0-1.37.25-1.87.75-.51.5-.79,1.16-.84,1.99Z"/>
    <path class="cls-2" d="M297.27,47.81v-9.54h1.46v1.36c.7-1.05,1.71-1.57,3.04-1.57.58,0,1.1.1,1.59.31.48.21.84.48,1.08.81.24.33.41.73.5,1.19.06.3.09.82.09,1.57v5.87h-1.62v-5.8c0-.66-.06-1.15-.19-1.48-.12-.33-.35-.59-.67-.78s-.7-.29-1.13-.29c-.69,0-1.28.22-1.78.66-.5.44-.75,1.27-.75,2.49v5.21h-1.62Z"/>
    <path class="cls-2" d="M311.03,46.37l.23,1.43c-.46.1-.86.14-1.22.14-.59,0-1.04-.09-1.37-.28s-.55-.43-.68-.73-.2-.94-.2-1.91v-5.49h-1.19v-1.26h1.19v-2.36l1.61-.97v3.33h1.63v1.26h-1.63v5.58c0,.46.03.76.09.89.06.13.15.24.28.31.13.08.31.12.55.12.18,0,.42-.02.71-.06Z"/>
  </g>
  <g>
    <path class="cls-2" d="M28.82,34.97c2.49,0,3.85-1.66,3.85-3.98v-11.84h5.3v12.11c-.05,5.33-4.32,7.42-9.15,7.42s-9.09-2.09-9.15-7.42v-12.11h5.3v11.84c0,2.32,1.35,3.98,3.85,3.98Z"/>
    <polygon class="cls-2" points="5.94 38.28 11.24 38.28 11.24 22.86 17.18 22.86 17.18 19.15 0 19.15 0 22.86 5.94 22.86 5.94 38.28"/>
    <path class="cls-2" d="M18.67,9.83c-1.29.41-2.63.08-2.62-1.65,0-2.64,6.19-4.85,7.05-7.15.21-.57.23-1.05-.05-1.03-.2.01-.04.3-.48.73-2.56,2.57-6.86,2.56-10.16,4.04-2.16.97-8.5,3.95-7.04,10.6.07.32.26,1.37.45,1.37.22,0,.22-.63.22-1.39-.05-3.96,4.64-5.06,6.17-7.65.18-.31.5-.74.57-.54.04.1.01.24-.05.52-.48,2.13-2.7,3.49-2.07,5.01.82,1.97,3.17.5,3.9-.77.19-.35.3-.57.43-.53.1.03.09.43.03.8-.39,2.29-.91,3.57-2.59,4.88-.54.42-1.38.5-1.27.82.03.08.39.07.68.04,4.46-.29,8.19-5.54,9.18-8.98.1-.24.13-.47.03-.55-.13-.1-.33.13-.53.31-.51.45-1.21.91-1.85,1.12Z"/>
    <path class="cls-2" d="M63.94,30.35c.02-2.08,1.27-3.95,3.37-3.95,2.44,0,3.39,1.67,3.39,3.95h-6.76ZM73.35,32.1v-1.25c0-3.68-2.09-6.28-5.86-6.28-4.21,0-6.18,3.26-6.18,7.16s1.7,6.95,5.97,6.95c3.18,0,5.51-1.51,5.91-4.53h-2.65c-.29,1.93-1.27,2.7-3.23,2.7-2.57,0-3.43-2.29-3.43-4.74h9.47Z"/>
    <rect class="cls-2" x="76.41" y="19.15" width="2.52" height="19.13"/>
    <path class="cls-2" d="M86.82,38.28v-11.55h3.07v-1.75h-3.07v-2.15c0-1.54.74-1.8,2.17-1.8.42,0,.85.05,1.27.08v-2.09c-.59-.13-1.19-.27-1.8-.27-2.38,0-4.16,1.2-4.16,3.74v2.49h-2.6v1.75h2.6v11.55h2.52Z"/>
    <path class="cls-2" d="M91.34,24.98v1.75h2.28v8.48c0,1.77.03,3.47,3.77,3.47.58,0,1.13-.05,1.72-.16v-1.93c-.41.1-.93.16-1.33.16-.9,0-1.64-.45-1.64-1.4v-8.61h3.07v-1.75h-3.07v-3.63l-2.52.79v2.84h-2.28Z"/>
    <path class="cls-2" d="M43.27,38.28h6.57c8.18,0,9.04-6.93,9.04-9.57s-.86-9.57-9.04-9.57h-6.57v19.13ZM45.92,21.42h3.92c4.42,0,6.26,3.34,6.26,7.29s-1.83,7.29-6.26,7.29h-3.92v-14.58Z"/>
  </g>
  <line class="cls-1" x1="118" y1="5.89" x2="118" y2="51.68"/>
</svg>