<?xml version="1.0" encoding="utf-8"?>
<!-- Generator: Adobe Illustrator 28.0.0, SVG Export Plug-In . SVG Version: 6.00 Build 0)  -->
<svg version="1.1" id="Layer_1" xmlns="http://www.w3.org/2000/svg" xmlns:xlink="http://www.w3.org/1999/xlink" x="0px" y="0px"
	 viewBox="0 0 141.8 39.6" style="enable-background:new 0 0 141.8 39.6;" xml:space="preserve">
<style type="text/css">
	.st0{fill:#FFFFFF;}
</style>
<g>
	<path class="st0" d="M28.8,35c2.5,0,3.8-1.6,3.8-4V19.2H38v12.1c-0.1,5.3-4.3,7.4-9.2,7.4s-9.1-2.1-9.2-7.4V19.2H25V31
		C25,33.3,26.3,35,28.8,35z"/>
	<path class="st0" d="M63.9,30.4c0-2.1,1.3-3.9,3.4-3.9c2.4,0,3.4,1.7,3.4,3.9H63.9z M73.4,32.1v-1.2c0-3.7-2.1-6.3-5.9-6.3
		c-4.2,0-6.2,3.3-6.2,7.2c0,3.9,1.7,6.9,6,6.9c3.2,0,5.5-1.5,5.9-4.5h-2.6c-0.3,1.9-1.3,2.7-3.2,2.7c-2.6,0-3.4-2.3-3.4-4.7
		L73.4,32.1L73.4,32.1z"/>
	<rect x="76.4" y="19.2" class="st0" width="2.5" height="19.1"/>
	<polygon class="st0" points="5.9,38.3 11.2,38.3 11.2,22.9 17.2,22.9 17.2,19.2 0,19.2 0,22.9 5.9,22.9 	"/>
	<path class="st0" d="M18.7,9.8c-1.3,0.4-2.6,0.1-2.6-1.6c0-2.6,6.2-4.9,7.1-7.1c0.2-0.6,0.2-1.1-0.1-1c-0.2,0,0,0.3-0.5,0.7
		c-2.6,2.6-6.9,2.6-10.2,4c-2.2,1-8.5,3.9-7,10.6c0.1,0.3,0.3,1.4,0.4,1.4C6,16.7,6,16.1,6,15.4c-0.1-4,4.6-5.1,6.2-7.6
		c0.2-0.3,0.5-0.7,0.6-0.5c0,0.1,0,0.2-0.1,0.5c-0.5,2.1-2.7,3.5-2.1,5c0.8,2,3.2,0.5,3.9-0.8c0.2-0.4,0.3-0.6,0.4-0.5
		c0.1,0,0.1,0.4,0,0.8c-0.4,2.3-0.9,3.6-2.6,4.9c-0.5,0.4-1.4,0.5-1.3,0.8c0,0.1,0.4,0.1,0.7,0c4.5-0.3,8.2-5.5,9.2-9
		c0.1-0.2,0.1-0.5,0-0.6c-0.1-0.1-0.3,0.1-0.5,0.3C20,9.2,19.3,9.6,18.7,9.8z"/>
	<path class="st0" d="M106.6,19.2c1.6,0,2.6,0.8,2.6,2.5s-0.9,2.5-2.6,2.5h-1.3v-5L106.6,19.2L106.6,19.2z M106.7,23.7
		c1.4,0,2-0.8,2-2.1c0-1.5-0.9-2.1-2.3-2.1h-0.7v4.1L106.7,23.7L106.7,23.7z"/>
	<path class="st0" d="M110.2,22.5c0,0.7,0.4,1.4,1.2,1.4c0.5,0,0.9-0.4,1-0.8h0.4c-0.2,0.8-0.7,1.2-1.6,1.2c-1,0-1.5-0.9-1.5-1.8
		c0-0.9,0.5-1.8,1.5-1.8c1.1,0,1.6,0.9,1.6,1.9L110.2,22.5L110.2,22.5z M112.4,22.1c-0.1-0.7-0.4-1.2-1.1-1.2c-0.7,0-1,0.6-1.1,1.2
		H112.4z"/>
	<path class="st0" d="M114,24.1h-0.4v-5h0.4V24.1z"/>
	<path class="st0" d="M115.3,24.1V21h-0.7v-0.4h0.7v-0.7c0-0.6,0.2-0.9,0.8-0.9c0.1,0,0.3,0.1,0.4,0.1v0.3c-0.1,0-0.2,0-0.2,0
		c-0.6,0-0.6,0.3-0.6,0.8v0.4h0.8V21h-0.8v3.1H115.3z"/>
	<path class="st0" d="M117.5,21h-0.7v-0.4h0.7v-0.7l0.4-0.2v0.9h0.8V21h-0.8v2.3c0,0.3,0.2,0.5,0.5,0.5c0.1,0,0.2,0,0.4,0v0.4
		c-0.1,0-0.3,0.1-0.4,0.1c-0.9,0-0.8-0.6-0.8-1V21z"/>
	<path class="st0" d="M105.7,26.2v3.2c0,0.9,0.6,1.4,1.4,1.4c0.8,0,1.3-0.5,1.4-1.4v-3.2h0.4v3.2c0,1.1-0.6,1.9-1.8,1.9
		s-1.8-0.8-1.8-1.9v-3.2H105.7z"/>
	<path class="st0" d="M110.2,31.2h-0.4v-2.7c0-0.3,0-0.5,0-0.8h0.4l0,0.5l0,0c0.2-0.4,0.6-0.6,1.1-0.6c1.1,0,1.2,1,1.2,1.4v2.2h-0.4
		V29c0-0.6-0.3-0.9-0.9-0.9c-0.7,0-1,0.6-1,1.2L110.2,31.2L110.2,31.2z"/>
	<path class="st0" d="M113.8,26.8h-0.5v-0.5h0.5V26.8z M113.8,27.8v3.4h-0.4v-3.4H113.8z"/>
	<path class="st0" d="M114.9,27.8l1.2,2.9l1.1-2.9h0.4l-1.4,3.4h-0.5l-1.4-3.4H114.9z"/>
	<path class="st0" d="M118.4,29.6c0,0.7,0.4,1.4,1.2,1.4c0.5,0,0.9-0.4,1-0.8h0.4c-0.2,0.8-0.7,1.2-1.6,1.2c-1,0-1.5-0.9-1.5-1.8
		c0-0.9,0.5-1.8,1.5-1.8c1.2,0,1.6,0.9,1.6,1.9L118.4,29.6L118.4,29.6z M120.6,29.2c-0.1-0.7-0.4-1.2-1.1-1.2c-0.7,0-1,0.6-1.1,1.2
		H120.6z"/>
	<path class="st0" d="M122.3,31.2h-0.4v-2.7c0-0.3,0-0.5,0-0.8h0.4l0,0.5h0c0.1-0.4,0.4-0.6,0.8-0.6c0.1,0,0.3,0,0.4,0v0.4
		c-0.1,0-0.2,0-0.2,0c-0.6,0-0.9,0.4-0.9,1.1V31.2z"/>
	<path class="st0" d="M125.2,27.6c0.6,0,1.2,0.2,1.3,0.9H126c0-0.4-0.4-0.6-0.9-0.6c-0.4,0-0.8,0.1-0.8,0.6c0,0.5,0.7,0.5,1.6,0.8
		c0.4,0.1,0.6,0.4,0.6,0.8c0,0.8-0.7,1.1-1.4,1.1c-0.6,0-1.3-0.3-1.3-1h0.4c0,0.5,0.5,0.7,1,0.7c0.4,0,0.9-0.2,0.9-0.7
		c0-0.5-0.5-0.6-1.1-0.7c-0.5-0.1-1.1-0.3-1.1-0.9C123.9,27.9,124.5,27.6,125.2,27.6z"/>
	<path class="st0" d="M127.8,26.8h-0.5v-0.5h0.5V26.8z M127.7,27.8v3.4h-0.4v-3.4H127.7z"/>
	<path class="st0" d="M129.1,28.1h-0.7v-0.4h0.7V27l0.4-0.2v0.9h0.8v0.4h-0.8v2.3c0,0.3,0.2,0.5,0.5,0.5c0.1,0,0.2,0,0.4,0v0.4
		c-0.1,0-0.3,0.1-0.4,0.1c-0.9,0-0.8-0.6-0.8-1V28.1z"/>
	<path class="st0" d="M131.3,27.8l1.2,2.9l1.1-2.9h0.5l-1.9,4.8h-0.5l0.5-1.3l-1.4-3.4H131.3z"/>
	<path class="st0" d="M139.6,29.5c0,0.9-0.5,1.8-1.6,1.8s-1.6-0.9-1.6-1.8s0.5-1.8,1.6-1.8C139.1,27.6,139.6,28.6,139.6,29.5z
		 M138,28c-0.8,0-1.2,0.8-1.2,1.4s0.3,1.4,1.2,1.4c0.8,0,1.2-0.8,1.2-1.4C139.1,28.8,138.8,28,138,28z"/>
	<path class="st0" d="M140.5,31.2v-3.1h-0.7v-0.4h0.7V27c0-0.6,0.2-0.9,0.8-0.9c0.1,0,0.3,0.1,0.4,0.1v0.3c-0.1,0-0.2,0-0.2,0
		c-0.6,0-0.6,0.3-0.6,0.8v0.4h0.8v0.4H141v3.1H140.5z"/>
	<path class="st0" d="M106.8,33.7h-1.6v-0.4h3.6v0.4h-1.6v4.6h-0.4L106.8,33.7L106.8,33.7z"/>
	<path class="st0" d="M108.8,36.7c0,0.7,0.4,1.4,1.2,1.4c0.5,0,0.9-0.4,1-0.8h0.4c-0.2,0.8-0.7,1.2-1.6,1.2c-1,0-1.5-0.9-1.5-1.8
		c0-0.9,0.5-1.8,1.5-1.8c1.1,0,1.6,0.9,1.6,1.9L108.8,36.7L108.8,36.7z M111,36.3c-0.1-0.7-0.4-1.2-1.1-1.2c-0.7,0-1,0.6-1.1,1.2
		H111z"/>
	<path class="st0" d="M114.5,35.9c0-0.5-0.4-0.8-0.9-0.8c-0.6,0-1,0.7-1,1.4c0,0.8,0.4,1.5,1,1.5c0.5,0,0.9-0.3,0.9-0.8h0.4
		c-0.1,0.8-0.6,1.2-1.4,1.2c-1,0-1.5-0.9-1.5-1.8c0-0.9,0.5-1.8,1.5-1.8c0.7,0,1.3,0.4,1.3,1.2H114.5z"/>
	<path class="st0" d="M116,35.4L116,35.4c0.2-0.4,0.6-0.6,1.1-0.6c1.1,0,1.2,1,1.2,1.4v2.2h-0.4v-2.2c0-0.6-0.3-0.9-0.9-0.9
		c-0.7,0-1,0.6-1,1.2v2h-0.4v-5h0.4L116,35.4L116,35.4z"/>
	<path class="st0" d="M119.6,38.3h-0.4v-2.7c0-0.3,0-0.5,0-0.8h0.4l0,0.5l0,0c0.2-0.4,0.6-0.6,1.1-0.6c1.1,0,1.2,1,1.2,1.4v2.2h-0.4
		v-2.2c0-0.6-0.3-0.9-0.9-0.9c-0.7,0-1,0.6-1,1.2L119.6,38.3L119.6,38.3z"/>
	<path class="st0" d="M125.9,36.6c0,0.9-0.5,1.8-1.6,1.8s-1.6-0.9-1.6-1.8s0.5-1.8,1.6-1.8S125.9,35.7,125.9,36.6z M124.3,35.1
		c-0.8,0-1.2,0.8-1.2,1.4s0.3,1.4,1.2,1.4s1.2-0.8,1.2-1.4C125.4,35.9,125.1,35.1,124.3,35.1z"/>
	<path class="st0" d="M127,38.3h-0.4v-5h0.4V38.3z"/>
	<path class="st0" d="M130.9,36.6c0,0.9-0.5,1.8-1.6,1.8s-1.6-0.9-1.6-1.8s0.5-1.8,1.6-1.8C130.4,34.7,130.9,35.7,130.9,36.6z
		 M129.3,35.1c-0.8,0-1.2,0.8-1.2,1.4s0.3,1.4,1.2,1.4c0.8,0,1.2-0.8,1.2-1.4S130.1,35.1,129.3,35.1z"/>
	<path class="st0" d="M134.2,34.8h0.4c0,0.2,0,0.5,0,0.8v2.1c0,0.7,0,1.4-0.7,1.8c-0.3,0.1-0.5,0.2-0.8,0.2c-0.6,0-1.4-0.2-1.4-0.9
		h0.4c0.1,0.4,0.5,0.6,1,0.6c0.5,0,1-0.4,1-0.9v-0.6h0c-0.2,0.4-0.7,0.6-1.1,0.6c-1,0-1.5-0.8-1.5-1.7c0-0.9,0.4-1.8,1.5-1.8
		c0.5,0,0.9,0.2,1.1,0.6l0,0L134.2,34.8z M133,35.1c-0.8,0-1.1,0.8-1.1,1.4s0.3,1.4,1.1,1.4c0.8,0,1.1-0.7,1.1-1.4
		C134.1,35.8,133.8,35.1,133,35.1z"/>
	<path class="st0" d="M135.6,34.8l1.2,2.9l1.1-2.9h0.5l-1.9,4.8H136l0.5-1.3l-1.4-3.4H135.6z"/>
	<path class="st0" d="M86.8,38.3V26.7h3.1V25h-3.1v-2.1c0-1.5,0.7-1.8,2.2-1.8c0.4,0,0.9,0.1,1.3,0.1V19c-0.6-0.1-1.2-0.3-1.8-0.3
		c-2.4,0-4.2,1.2-4.2,3.7V25h-2.6v1.8h2.6v11.5H86.8z"/>
	<path class="st0" d="M91.3,25v1.8h2.3v8.5c0,1.8,0,3.5,3.8,3.5c0.6,0,1.1-0.1,1.7-0.2v-1.9c-0.4,0.1-0.9,0.2-1.3,0.2
		c-0.9,0-1.6-0.4-1.6-1.4v-8.6h3.1V25h-3.1v-3.6l-2.5,0.8V25L91.3,25z"/>
	<path class="st0" d="M43.3,38.3h6.6c8.2,0,9-6.9,9-9.6c0-2.6-0.9-9.6-9-9.6h-6.6V38.3z M45.9,21.4h3.9c4.4,0,6.3,3.3,6.3,7.3
		S54.3,36,49.8,36h-3.9V21.4z"/>
</g>
</svg>
