<?xml version="1.0" encoding="utf-8"?>
<!-- Generator: Adobe Illustrator 25.4.1, SVG Export Plug-In . SVG Version: 6.00 Build 0)  -->
<svg version="1.1" id="Layer_1" xmlns="http://www.w3.org/2000/svg" xmlns:xlink="http://www.w3.org/1999/xlink" x="0px" y="0px"
	 viewBox="0 0 48 48" style="enable-background:new 0 0 48 48;" xml:space="preserve">
<style type="text/css">
	.st0{fill:#16205F;}
</style>
<path class="st0" d="M6.6,41.3c-0.4-0.4-0.7-1-0.7-1.6V33c0-0.5,0.2-1,0.5-1.4c0.3-0.4,0.8-0.6,1.2-0.8l6-1.3
	c0.4-0.1,0.9-0.1,1.3,0.1s0.8,0.4,1.1,0.8l4.8,4.9c2.9-1.6,5.6-3.5,7.9-5.8s4.4-5,6.3-8.1l-5-5.1c-0.3-0.3-0.4-0.6-0.5-1
	c-0.1-0.4-0.1-0.8,0-1.3l1.4-6.3c0.1-0.5,0.3-1,0.7-1.3S32.3,6,32.8,6h7c0.6,0,1.2,0.2,1.6,0.7c0.4,0.4,0.7,1,0.7,1.6
	c0,4.1-1,8.1-3,12.1s-4.6,7.6-7.8,10.8S24.4,37,20.4,39s-8.1,3-12.1,3C7.6,42,7.1,41.8,6.6,41.3z"/>
</svg>
